<svg xmlns="http://www.w3.org/2000/svg" width="182px" height="122px" viewBox="158 13 182 122"
     preserveAspectRatio="xMidYMid"><defs><filter id="editing-hover" x="-100%" y="-100%" width="300%" height="300%"><feFlood flood-color="#052b4a" result="flood"></feFlood><feComposite operator="in" in2="SourceAlpha" in="flood" result="shadow"></feComposite><feOffset dx="-4" dy="-4" in="SourceGraphic" result="offset-1"></feOffset><feOffset dx="4" dy="4" in="shadow" result="offset-2"></feOffset><feMerge><feMergeNode in="offset-2"></feMergeNode><feMergeNode in="offset-1"></feMergeNode></feMerge></filter></defs><g filter="url(#editing-hover)"><g transform="translate(191.66499784588814, 97.15781211853027)">
    <path d="M26.11-42.69L26.11-42.69L26.11-42.69Q41.79-42.69 41.79-31.62L41.79-31.62L41.79-31.62Q41.79-25.54 37.89-21.89L37.89-21.89L37.89-21.89Q34.05-18.24 27.33-18.24L27.33-18.24L27.33-18.24Q24.19-18.24 21.76-20.03L21.76-20.03L21.76-20.03Q20.61-20.80 19.84-21.82L19.84-21.82L19.84-21.82Q24.51-21.82 26.98-24.67L26.98-24.67L26.98-24.67Q29.44-27.52 29.44-33.09L29.44-33.09L29.44-33.09Q29.44-38.66 23.94-38.66L23.94-38.66L22.40-38.66L22.40-38.66Q22.02-38.66 21.70-38.59L21.70-38.59L14.34 0L0.45 0L8.32-41.92L8.32-41.92Q15.17-42.56 19.14-42.62L19.14-42.62L19.14-42.62Q23.10-42.69 26.11-42.69ZM68.10-1.09L68.10-1.09L68.10-1.09Q62.40 1.28 55.42 1.28L55.42 1.28L55.42 1.28Q49.28 1.28 45.12-1.92L45.12-1.92L45.12-1.92Q40.58-5.31 40.58-11.33L40.58-11.33L40.58-11.33Q40.58-20.22 51.26-22.72L51.26-22.72L51.26-22.72Q49.47-27.78 49.47-31.30L49.47-31.30L49.47-31.30Q49.47-34.82 50.82-37.09L50.82-37.09L50.82-37.09Q52.16-39.36 54.46-40.83L54.46-40.83L54.46-40.83Q58.82-43.52 66.11-43.52L66.11-43.52L66.11-43.52Q71.17-43.52 74.37-41.60L74.37-41.60L74.37-41.60Q77.63-39.62 77.63-36.67L77.63-36.67L77.63-36.67Q77.63-33.34 75.33-31.49L75.33-31.49L75.33-31.49Q73.28-29.76 69.89-29.76L69.89-29.76L69.89-29.76Q67.90-29.76 67.26-29.95L67.26-29.95L67.26-29.95Q67.52-31.36 67.52-33.66L67.52-33.66L67.52-33.66Q67.52-35.97 66.75-37.54L66.75-37.54L66.75-37.54Q65.98-39.10 64.70-39.10L64.70-39.10L64.70-39.10Q62.34-39.10 61.44-37.02L61.44-37.02L61.44-37.02Q60.54-34.94 60.54-31.90L60.54-31.90L60.54-31.90Q60.54-28.86 61.15-26.08L61.15-26.08L61.15-26.08Q61.76-23.30 62.91-20.61L62.91-20.61L62.91-20.61Q65.34-15.04 69.25-11.26L69.25-11.26L69.25-11.26Q70.27-13.76 70.40-17.66L70.40-17.66L70.40-17.66Q70.40-21.12 68.03-23.17L68.03-23.17L68.03-23.17Q68.93-24 70.66-24.51L70.66-24.51L70.66-24.51Q72.38-25.02 73.92-25.02L73.92-25.02L73.92-25.02Q77.31-25.02 78.91-22.98L78.91-22.98L78.91-22.98Q80.51-20.93 80.51-17.66L80.51-17.66L80.51-17.66Q80.51-11.84 76.35-7.04L76.35-7.04L76.35-7.04Q77.95-6.59 79.42-6.59L79.42-6.59L79.42-6.59Q82.62-6.59 83.65-7.42L83.65-7.42L83.65-7.42Q84.16-6.21 84.16-4.61L84.16-4.61L84.16-4.61Q84.16-1.41 82.08-0.06L82.08-0.06L82.08-0.06Q80 1.28 76.29 1.28L76.29 1.28L76.29 1.28Q72.58 1.28 68.10-1.09ZM53.44-17.86L53.44-17.86L53.44-17.86Q52.03-16.45 52.03-13.95L52.03-13.95L52.03-13.95Q52.03-11.46 52.61-9.89L52.61-9.89L52.61-9.89Q53.18-8.32 54.08-7.17L54.08-7.17L54.08-7.17Q56.13-4.67 58.82-4.67L58.82-4.67L58.82-4.67Q61.25-4.67 62.66-5.18L62.66-5.18L62.66-5.18Q57.28-10.24 53.44-17.86ZM115.01-9.86L115.01-9.86L115.01-9.86Q116.22-8.32 116.22-5.34L116.22-5.34L116.22-5.34Q116.22-2.37 113.95-0.54L113.95-0.54L113.95-0.54Q111.68 1.28 107.71 1.28L107.71 1.28L107.71 1.28Q105.41 1.28 101.82 0.77L101.82 0.77L101.82 0.77Q94.78-0.32 92.77-0.32L92.77-0.32L92.77-0.32Q90.75-0.32 89.92-0.22L89.92-0.22L89.92-0.22Q89.09-0.13 87.74 0L87.74 0L95.49-42.24L109.50-42.24L103.10-7.04L103.10-7.04Q103.94-6.91 104.70-6.91L104.70-6.91L106.30-6.91L106.30-6.91Q111.68-6.91 115.01-9.86Z"
          fill="#42b983">
    </path>
</g></g>
</svg>
