<svg xmlns="http://www.w3.org/2000/svg" width="528px" height="122px" viewBox="-14 13 528 122"
     style="background: none" preserveAspectRatio="xMidYMid">
    <defs><filter id="editing-extrude-glow"><feFlood flood-color="#333333" result="flood-1"></feFlood><feMorphology operator="erode" radius="1" in="SourceAlpha" result="erode"></feMorphology><feComposite operator="in" in="flood-1" in2="erode" result="comp1"></feComposite><feConvolveMatrix order="3,3" divisor="1" in="comp1" result="convolve" kernelMatrix="0 0 0 1 1 1 0 0 0"></feConvolveMatrix><feOffset dx="-3" dy="0" in="convolve" result="extrude"></feOffset><feComposite operator="in" in="flood-1" in2="extrude" result="comp-extrude"></feComposite><feFlood flood-color="#000000" result="flood-2"></feFlood><feComposite operator="in" in="flood-2" in2="SourceAlpha" result="comp2"></feComposite><feMorphology operator="dilate" radius="1" in="comp2" result="dilate"></feMorphology><feOffset dx="-4.5" dy="0" in="dilate" result="offset"></feOffset><feGaussianBlur in="offset" stdDeviation="5.8" result="blur"></feGaussianBlur><feComponentTransfer in="blur" result="shadow"><feFuncA type="linear" slope="0.8" intercept="-0.2"></feFuncA></feComponentTransfer><feMerge><feMergeNode in="shadow"></feMergeNode><feMergeNode in="comp-extrude"></feMergeNode><feMergeNode in="SourceGraphic"></feMergeNode></feMerge></filter></defs><g filter="url(#editing-extrude-glow)"><g transform="translate(64.48719480633736, 98.7578125)">
    <path d="M26.11-42.69L26.11-42.69L26.11-42.69Q41.79-42.69 41.79-31.62L41.79-31.62L41.79-31.62Q41.79-25.54 37.89-21.89L37.89-21.89L37.89-21.89Q34.05-18.24 27.33-18.24L27.33-18.24L27.33-18.24Q24.19-18.24 21.76-20.03L21.76-20.03L21.76-20.03Q20.61-20.80 19.84-21.82L19.84-21.82L19.84-21.82Q24.51-21.82 26.98-24.67L26.98-24.67L26.98-24.67Q29.44-27.52 29.44-33.09L29.44-33.09L29.44-33.09Q29.44-38.66 23.94-38.66L23.94-38.66L22.40-38.66L22.40-38.66Q22.02-38.66 21.70-38.59L21.70-38.59L14.34 0L0.45 0L8.32-41.92L8.32-41.92Q15.17-42.56 19.14-42.62L19.14-42.62L19.14-42.62Q23.10-42.69 26.11-42.69ZM68.03-10.82L68.03-10.82L68.03-10.82Q69.63-9.73 69.63-7.33L69.63-7.33L69.63-7.33Q69.63-4.93 68.42-3.39L68.42-3.39L68.42-3.39Q67.20-1.86 65.22-0.83L65.22-0.83L65.22-0.83Q61.12 1.28 56.70 1.28L56.70 1.28L56.70 1.28Q52.29 1.28 49.70 0.32L49.70 0.32L49.70 0.32Q47.10-0.64 45.38-2.43L45.38-2.43L45.38-2.43Q41.98-5.82 41.98-12.03L41.98-12.03L41.98-12.03Q41.98-21.70 47.23-27.58L47.23-27.58L47.23-27.58Q52.86-33.92 62.66-33.92L62.66-33.92L62.66-33.92Q68.74-33.92 71.74-31.36L71.74-31.36L71.74-31.36Q73.98-29.44 73.98-26.30L73.98-26.30L73.98-26.30Q73.98-15.04 54.53-15.04L54.53-15.04L54.53-15.04Q54.27-13.38 54.27-11.97L54.27-11.97L54.27-11.97Q54.27-9.02 55.58-7.90L55.58-7.90L55.58-7.90Q56.90-6.78 59.33-6.78L59.33-6.78L59.33-6.78Q61.76-6.78 64.35-7.90L64.35-7.90L64.35-7.90Q66.94-9.02 68.03-10.82ZM54.98-17.79L54.98-17.79L54.98-17.79Q59.52-17.79 62.14-20.61L62.14-20.61L62.14-20.61Q64.77-23.30 64.77-27.58L64.77-27.58L64.77-27.58Q64.77-29.06 64.22-29.86L64.22-29.86L64.22-29.86Q63.68-30.66 62.59-30.66L62.59-30.66L62.59-30.66Q61.50-30.66 60.58-30.24L60.58-30.24L60.58-30.24Q59.65-29.82 58.69-28.42L58.69-28.42L58.69-28.42Q56.32-25.22 54.98-17.79ZM96.19-17.98L96.19-17.98L96.19-17.98Q98.50-22.08 98.50-26.24L98.50-26.24L98.50-26.24Q98.50-28.99 96.51-28.99L96.51-28.99L96.51-28.99Q94.98-28.99 93.38-26.37L93.38-26.37L93.38-26.37Q91.71-23.74 91.20-20.35L91.20-20.35L87.87 0L74.62 1.28L81.15-32.64L91.71-33.92L90.56-27.46L90.56-27.46Q93.70-33.92 100.74-33.92L100.74-33.92L100.74-33.92Q104.45-33.92 106.46-32L106.46-32L106.46-32Q108.48-30.08 108.48-26.14L108.48-26.14L108.48-26.14Q108.48-22.21 105.89-19.71L105.89-19.71L105.89-19.71Q103.30-17.22 98.88-17.22L98.88-17.22L98.88-17.22Q96.96-17.22 96.19-17.98ZM128.64-22.46L128.64-22.46L128.64-22.46Q129.54-24.83 129.54-26.88L129.54-26.88L129.54-26.88Q129.54-30.66 126.46-30.66L126.46-30.66L126.46-30.66Q124.86-30.66 123.55-29.22L123.55-29.22L123.55-29.22Q122.24-27.78 122.24-25.98L122.24-25.98L122.24-25.98Q122.24-24.70 123.26-23.68L123.26-23.68L123.26-23.68Q124.74-22.27 128.51-19.97L128.51-19.97L128.51-19.97Q132.29-17.66 133.73-15.78L133.73-15.78L133.73-15.78Q135.17-13.89 135.17-11.30L135.17-11.30L135.17-11.30Q135.17-8.70 133.92-6.34L133.92-6.34L133.92-6.34Q132.67-3.97 130.43-2.30L130.43-2.30L130.43-2.30Q125.63 1.28 117.95 1.28L117.95 1.28L117.95 1.28Q113.79 1.28 110.59-0.90L110.59-0.90L110.59-0.90Q107.39-3.01 107.39-5.50L107.39-5.50L107.39-5.50Q107.39-8 109.22-9.47L109.22-9.47L109.22-9.47Q111.04-10.94 113.73-10.94L113.73-10.94L113.73-10.94Q116.42-10.94 118.08-9.92L118.08-9.92L118.08-9.92Q117.25-7.81 117.25-6.40L117.25-6.40L117.25-6.40Q117.25-2.18 120.83-2.18L120.83-2.18L120.83-2.18Q122.37-2.18 123.39-3.14L123.39-3.14L123.39-3.14Q124.42-4.10 124.42-5.76L124.42-5.76L124.42-5.76Q124.42-9.02 118.91-12.48L118.91-12.48L118.91-12.48Q114.43-15.42 113.41-16.58L113.41-16.58L113.41-16.58Q111.68-18.62 111.68-21.18L111.68-21.18L111.68-21.18Q111.68-23.74 112.90-26.18L112.90-26.18L112.90-26.18Q114.11-28.61 116.35-30.34L116.35-30.34L116.35-30.34Q121.02-33.92 129.15-33.92L129.15-33.92L129.15-33.92Q133.31-33.92 135.78-32.26L135.78-32.26L135.78-32.26Q138.24-30.59 138.24-27.78L138.24-27.78L138.24-27.78Q138.24-24.96 136.54-23.36L136.54-23.36L136.54-23.36Q134.85-21.76 131.78-21.76L131.78-21.76L131.78-21.76Q129.66-21.76 128.64-22.46ZM154.56 1.28L154.56 1.28L154.56 1.28Q140.48 1.28 140.48-11.97L140.48-11.97L140.48-11.97Q140.48-21.38 145.66-27.46L145.66-27.46L145.66-27.46Q151.17-33.92 160.70-33.92L160.70-33.92L160.70-33.92Q167.62-33.92 171.14-30.72L171.14-30.72L171.14-30.72Q174.66-27.52 174.66-20.80L174.66-20.80L174.66-20.80Q174.66-10.56 169.15-4.61L169.15-4.61L169.15-4.61Q163.78 1.28 154.56 1.28ZM156.22-26.56L156.22-26.56L156.22-26.56Q155.46-24.83 154.85-22.24L154.85-22.24L154.85-22.24Q154.24-19.65 153.47-15.55L153.47-15.55L153.47-15.55Q152.70-11.46 152.70-6.40L152.70-6.40L152.70-6.40Q152.70-4.74 153.25-3.65L153.25-3.65L153.25-3.65Q153.79-2.56 155.26-2.56L155.26-2.56L155.26-2.56Q156.74-2.56 157.66-3.26L157.66-3.26L157.66-3.26Q158.59-3.97 159.30-5.63L159.30-5.63L159.30-5.63Q160.58-8.58 161.60-14.05L161.60-14.05L161.60-14.05Q162.62-19.52 162.72-21.89L162.72-21.89L162.72-21.89Q162.82-24.26 162.82-26.02L162.82-26.02L162.82-26.02Q162.82-27.78 162.30-28.93L162.30-28.93L162.30-28.93Q161.79-30.08 160.35-30.08L160.35-30.08L160.35-30.08Q158.91-30.08 157.95-29.18L157.95-29.18L157.95-29.18Q156.99-28.29 156.22-26.56ZM205.50 1.28L205.50 1.28L205.50 1.28Q197.76 1.28 197.76-4.74L197.76-4.74L197.76-4.74Q197.82-6.40 198.34-9.22L198.34-9.22L199.49-15.10L199.49-15.10Q201.22-23.42 201.22-25.28L201.22-25.28L201.22-25.28Q201.22-28.99 199.04-28.99L199.04-28.99L199.04-28.99Q195.39-28.99 193.47-19.46L193.47-19.46L189.70 0L176.83 1.28L183.49-32.70L193.98-33.92L192.96-27.65L192.96-27.65Q195.97-33.92 205.18-33.92L205.18-33.92L205.18-33.92Q209.66-33.92 211.55-32.03L211.55-32.03L211.55-32.03Q213.44-30.14 213.44-25.92L213.44-25.92L213.44-25.92Q213.44-21.95 211.39-12.67L211.39-12.67L211.39-12.67Q210.43-8.51 210.43-6.94L210.43-6.94L210.43-6.94Q210.43-5.38 211.30-4.48L211.30-4.48L211.30-4.48Q212.16-3.58 213.44-3.46L213.44-3.46L213.44-3.46Q212.80-1.28 210.59 0L210.59 0L210.59 0Q208.38 1.28 205.50 1.28ZM245.31-1.09L245.31-1.09L245.31-1.09Q239.62 1.28 232.64 1.28L232.64 1.28L232.64 1.28Q226.50 1.28 222.34-1.92L222.34-1.92L222.34-1.92Q217.79-5.31 217.79-11.33L217.79-11.33L217.79-11.33Q217.79-20.22 228.48-22.72L228.48-22.72L228.48-22.72Q226.69-27.78 226.69-31.30L226.69-31.30L226.69-31.30Q226.69-34.82 228.03-37.09L228.03-37.09L228.03-37.09Q229.38-39.36 231.68-40.83L231.68-40.83L231.68-40.83Q236.03-43.52 243.33-43.52L243.33-43.52L243.33-43.52Q248.38-43.52 251.58-41.60L251.58-41.60L251.58-41.60Q254.85-39.62 254.85-36.67L254.85-36.67L254.85-36.67Q254.85-33.34 252.54-31.49L252.54-31.49L252.54-31.49Q250.50-29.76 247.10-29.76L247.10-29.76L247.10-29.76Q245.12-29.76 244.48-29.95L244.48-29.95L244.48-29.95Q244.74-31.36 244.74-33.66L244.74-33.66L244.74-33.66Q244.74-35.97 243.97-37.54L243.97-37.54L243.97-37.54Q243.20-39.10 241.92-39.10L241.92-39.10L241.92-39.10Q239.55-39.10 238.66-37.02L238.66-37.02L238.66-37.02Q237.76-34.94 237.76-31.90L237.76-31.90L237.76-31.90Q237.76-28.86 238.37-26.08L238.37-26.08L238.37-26.08Q238.98-23.30 240.13-20.61L240.13-20.61L240.13-20.61Q242.56-15.04 246.46-11.26L246.46-11.26L246.46-11.26Q247.49-13.76 247.62-17.66L247.62-17.66L247.62-17.66Q247.62-21.12 245.25-23.17L245.25-23.17L245.25-23.17Q246.14-24 247.87-24.51L247.87-24.51L247.87-24.51Q249.60-25.02 251.14-25.02L251.14-25.02L251.14-25.02Q254.53-25.02 256.13-22.98L256.13-22.98L256.13-22.98Q257.73-20.93 257.73-17.66L257.73-17.66L257.73-17.66Q257.73-11.84 253.57-7.04L253.57-7.04L253.57-7.04Q255.17-6.59 256.64-6.59L256.64-6.59L256.64-6.59Q259.84-6.59 260.86-7.42L260.86-7.42L260.86-7.42Q261.38-6.21 261.38-4.61L261.38-4.61L261.38-4.61Q261.38-1.41 259.30-0.06L259.30-0.06L259.30-0.06Q257.22 1.28 253.50 1.28L253.50 1.28L253.50 1.28Q249.79 1.28 245.31-1.09ZM230.66-17.86L230.66-17.86L230.66-17.86Q229.25-16.45 229.25-13.95L229.25-13.95L229.25-13.95Q229.25-11.46 229.82-9.89L229.82-9.89L229.82-9.89Q230.40-8.32 231.30-7.17L231.30-7.17L231.30-7.17Q233.34-4.67 236.03-4.67L236.03-4.67L236.03-4.67Q238.46-4.67 239.87-5.18L239.87-5.18L239.87-5.18Q234.50-10.24 230.66-17.86ZM292.22-9.86L292.22-9.86L292.22-9.86Q293.44-8.32 293.44-5.34L293.44-5.34L293.44-5.34Q293.44-2.37 291.17-0.54L291.17-0.54L291.17-0.54Q288.90 1.28 284.93 1.28L284.93 1.28L284.93 1.28Q282.62 1.28 279.04 0.77L279.04 0.77L279.04 0.77Q272.00-0.32 269.98-0.32L269.98-0.32L269.98-0.32Q267.97-0.32 267.14-0.22L267.14-0.22L267.14-0.22Q266.30-0.13 264.96 0L264.96 0L272.70-42.24L286.72-42.24L280.32-7.04L280.32-7.04Q281.15-6.91 281.92-6.91L281.92-6.91L283.52-6.91L283.52-6.91Q288.90-6.91 292.22-9.86ZM313.09-3.52L313.09-3.52L313.09-3.52Q311.10 1.28 304.77 1.28L304.77 1.28L304.77 1.28Q301.50 1.28 299.46-0.96L299.46-0.96L299.46-0.96Q297.73-2.94 297.73-4.93L297.73-4.93L297.73-4.93Q297.73-10.11 300.10-20.22L300.10-20.22L302.46-32.64L315.46-33.92L311.55-13.70L311.55-13.70Q310.46-8.96 310.46-7.30L310.46-7.30L310.46-7.30Q310.46-3.65 313.09-3.52ZM303.62-41.54L303.62-41.54L303.62-41.54Q303.62-44.03 305.70-45.38L305.70-45.38L305.70-45.38Q307.78-46.72 310.78-46.72L310.78-46.72L310.78-46.72Q313.79-46.72 315.62-45.38L315.62-45.38L315.62-45.38Q317.44-44.03 317.44-41.54L317.44-41.54L317.44-41.54Q317.44-39.04 315.42-37.76L315.42-37.76L315.42-37.76Q313.41-36.48 310.40-36.48L310.40-36.48L310.40-36.48Q307.39-36.48 305.50-37.76L305.50-37.76L305.50-37.76Q303.62-39.04 303.62-41.54ZM337.66-22.46L337.66-22.46L337.66-22.46Q338.56-24.83 338.56-26.88L338.56-26.88L338.56-26.88Q338.56-30.66 335.49-30.66L335.49-30.66L335.49-30.66Q333.89-30.66 332.58-29.22L332.58-29.22L332.58-29.22Q331.26-27.78 331.26-25.98L331.26-25.98L331.26-25.98Q331.26-24.70 332.29-23.68L332.29-23.68L332.29-23.68Q333.76-22.27 337.54-19.97L337.54-19.97L337.54-19.97Q341.31-17.66 342.75-15.78L342.75-15.78L342.75-15.78Q344.19-13.89 344.19-11.30L344.19-11.30L344.19-11.30Q344.19-8.70 342.94-6.34L342.94-6.34L342.94-6.34Q341.70-3.97 339.46-2.30L339.46-2.30L339.46-2.30Q334.66 1.28 326.98 1.28L326.98 1.28L326.98 1.28Q322.82 1.28 319.62-0.90L319.62-0.90L319.62-0.90Q316.42-3.01 316.42-5.50L316.42-5.50L316.42-5.50Q316.42-8 318.24-9.47L318.24-9.47L318.24-9.47Q320.06-10.94 322.75-10.94L322.75-10.94L322.75-10.94Q325.44-10.94 327.10-9.92L327.10-9.92L327.10-9.92Q326.27-7.81 326.27-6.40L326.27-6.40L326.27-6.40Q326.27-2.18 329.86-2.18L329.86-2.18L329.86-2.18Q331.39-2.18 332.42-3.14L332.42-3.14L332.42-3.14Q333.44-4.10 333.44-5.76L333.44-5.76L333.44-5.76Q333.44-9.02 327.94-12.48L327.94-12.48L327.94-12.48Q323.46-15.42 322.43-16.58L322.43-16.58L322.43-16.58Q320.70-18.62 320.70-21.18L320.70-21.18L320.70-21.18Q320.70-23.74 321.92-26.18L321.92-26.18L321.92-26.18Q323.14-28.61 325.38-30.34L325.38-30.34L325.38-30.34Q330.05-33.92 338.18-33.92L338.18-33.92L338.18-33.92Q342.34-33.92 344.80-32.26L344.80-32.26L344.80-32.26Q347.26-30.59 347.26-27.78L347.26-27.78L347.26-27.78Q347.26-24.96 345.57-23.36L345.57-23.36L345.57-23.36Q343.87-21.76 340.80-21.76L340.80-21.76L340.80-21.76Q338.69-21.76 337.66-22.46ZM350.66-6.40L350.66-6.40L350.66-6.40Q350.66-8.13 351.55-12.48L351.55-12.48L354.94-29.76L351.17-29.76L351.42-31.68L351.42-31.68Q359.10-33.98 366.53-39.62L366.53-39.62L369.60-39.62L368.06-32.64L373.06-32.64L372.48-29.76L367.55-29.76L364.29-12.48L364.29-12.48Q363.46-8.51 363.46-7.17L363.46-7.17L363.46-7.17Q363.46-4.10 366.14-3.46L366.14-3.46L366.14-3.46Q365.50-1.28 363.20 0L363.20 0L363.20 0Q360.90 1.28 357.63 1.28L357.63 1.28L357.63 1.28Q354.37 1.28 352.51-0.77L352.51-0.77L352.51-0.77Q350.66-2.82 350.66-6.40Z"
          fill="#42b983">
    </path></g></g>
</svg>
